<?xml version="1.0" encoding="UTF-8"?>
<!DOCTYPE svg PUBLIC "-//W3C//DTD SVG 1.1//EN" "http://www.w3.org/Graphics/SVG/1.1/DTD/svg11.dtd">
<!-- Creator: CorelDRAW -->
<svg xmlns="http://www.w3.org/2000/svg" xml:space="preserve" width="64.3179mm" height="53.2265mm" version="1.1" style="shape-rendering:geometricPrecision; text-rendering:geometricPrecision; image-rendering:optimizeQuality; fill-rule:evenodd; clip-rule:evenodd"
viewBox="0 0 10629.95 8796.85"
 xmlns:xlink="http://www.w3.org/1999/xlink"
 xmlns:xodm="http://www.corel.com/coreldraw/odm/2003">
 <defs>
  <style type="text/css">
   <![CDATA[
    .fil0 {fill:#FEFEFE}
    .fil1 {fill:#FEFEFE;fill-rule:nonzero}
   ]]>
  </style>
 </defs>
 <g id="Plan_x0020_1">
  <metadata id="CorelCorpID_0Corel-Layer"/>
  <path class="fil0" d="M9705.48 1162.42c153.01,-156.58 395.64,-31.35 294.96,222.44l-1461.29 1751.47c-77.22,-72.34 -159.97,-137.97 -247.05,-193.55l1413.37 -1780.36zm-4796.34 1528.68c-14.08,-65.91 -44.39,-164.4 -50.92,-188.34 -18.61,-68.42 -52.03,-176.63 -86.21,-229.25 -27.63,-42.52 -53.27,-22.81 -32.44,-106.52 18.46,-74.17 110.45,-304.96 180.15,-299.01 27.52,38.56 50.41,115.86 67.23,167.09 30.96,94.24 34.15,94.6 26.48,203.86 -4.56,65.13 -18.97,141.52 -30.97,203.57 -15.29,78.95 2.48,139.9 84.93,145.04 16.87,-27.19 45.86,-67.43 67.41,-90.77 23.49,-25.44 49.73,-57.58 80.77,-83.93 82.07,-69.68 91.46,-77.93 152.27,-172.08 40.01,-61.96 80.37,-141.79 106.09,-218.27 17.42,-51.8 27.17,-69.46 16.66,-129.24 -9.22,-52.51 -9.62,-97.81 -16.73,-148.4 -114.83,-93.56 -223.93,17.09 -358.69,-111.08 -40.54,-38.56 -62.04,-77.38 -139.75,-95.26 -66.08,-15.22 -139.79,8.45 -178.18,46.19 -65.48,64.41 -119.51,229.74 -147.42,322.68 -33.95,112.98 -73.76,248.29 -69.76,380.27l-549.18 -673.3c-188,-230.47 -327.5,-547.79 -267,-850.11 58.16,-290.58 325.4,-458.15 605.01,-488.86 543.98,-59.71 697.63,352.94 960.64,722.26 249.84,-380.95 388.06,-782.88 940.25,-722.26 279.61,30.71 546.85,198.28 605.01,488.86 60.51,302.32 -79,619.64 -267,850.11l-829.12 1016.49c-85.63,16.53 -163.29,36.49 -433.16,-8.97 -109.15,-18.39 -217.22,102.09 -289.33,172.51 -16.73,16.35 -34.39,20.34 -50.09,15.59l-96.95 -118.86zm105.46 70.12c12.91,-3.57 40.48,-35.8 61.78,-54.94 24.11,-21.65 42.77,-36.13 67.6,-54.41 46.81,-34.49 95.15,-63.4 151.88,-88.26 221.68,-97.13 320.36,-352.46 391.35,-572.5 23.9,-74.11 5.12,-139.06 -29.29,-194.95 -16.44,-26.71 -34.13,-49.37 -52.44,-69.76 -7.26,-8.08 -52.44,-50.31 -65.43,-55.63 -31.48,35.22 -17.85,126.71 -9.3,177.16 14.46,85.35 19.17,88.8 -6.1,173.16 -28.2,94.17 -91.26,212.61 -138.96,279.72 -35.76,50.29 -53.13,70.75 -94.67,112.29 -27.7,27.7 -63.61,49.33 -107.11,99.87 -32.39,37.65 -158.21,203.45 -169.3,248.26zm259.03 -1642.87c-171.59,35.58 -205.58,305.97 -100.58,433.97 125.56,153.09 329.45,18.15 310.02,-216.64 -8.97,-108.4 -87.73,-242.59 -209.43,-217.33zm-338.03 1482.11l33.48 140.51c14.89,-35.32 45.85,-72.03 63.78,-106.78l-21.58 -11.85c-56.49,-27.6 -17.01,-29.55 -75.68,-21.88zm2769.26 107.18l1244.93 -1556.66c97.69,-113.94 275.77,-71.98 318.08,62.77 27.68,88.16 -11.6,114.63 -57.38,169.04 -229.65,272.83 -1070,1388.43 -1155.52,1433.22 0.5,-10.51 -313.75,-111.91 -350.11,-108.37zm-212.71 -744.65c230.52,-283.85 541.73,-79.31 273.26,244.04 -128.81,156.81 -257.64,313.6 -386.46,470.4 -182.56,1.14 -354.84,22.59 -529.45,87.64l642.64 -802.08zm1565.54 2538.86c13.01,-230.22 -2.83,-403.73 -39.27,-536.69l905.76 -1086.08c160.33,-193.43 536.82,-66.84 286.05,235.08l-1152.54 1387.69zm1158.08 -2377.31l-1294.11 1553.36c-56.61,-134.7 -126.25,-241.25 -203.23,-342.71l1276.68 -1529.13c119.08,-153.47 509.38,-19.45 220.67,318.48zm-1921.35 3643.19c235.25,-139.99 586.98,-607.36 860.9,-951.22l1358.11 -1704.98c215.5,-266.55 9.78,-632.56 -271.11,-613.09l298.61 -404.75c233.68,-316.73 -39.12,-578.25 -285.13,-627.04 245.74,-507.07 -383.28,-915.76 -777.74,-430.4 -129.31,-254.58 -467.95,-270.27 -661.86,-104.62 -111.71,95.43 -461.69,564.62 -581.92,714.93 -54.04,60.24 -109.1,151.08 -157.95,155.34 -79.56,-114.67 -167.83,-205.52 -329.35,-229.27 -140.48,-20.64 -317.29,48.54 -391.41,157.7l-1274.33 1598.13c-81.94,102.78 -138.75,172.23 -198.87,291.23 -710.07,1405.49 860.46,3071.4 2412.06,2148.04zm-1253.9 -1518.44c-115.43,-216.11 -8.78,-534.99 325.92,-600.85 548.77,-107.99 895.38,619.79 448.48,1106.83 -132.33,144.2 -353.27,244.11 -558.26,255.48 -541.83,30.1 -976.54,-476.38 -1009.37,-992.79 -13.52,-212.44 70.37,-530.8 179.73,-670.1 129.76,-165.26 266.93,-266.82 470.53,-330.97 462.58,-145.75 966.25,-109.82 1355.25,202.19 627.7,503.5 774.81,1387.52 232.26,2043.46 -973.85,1177.23 -2836.94,135.13 -2487.51,-1139.05 165.32,789.27 656.79,1253.14 1508.72,1095.37 386.36,-91.26 766.04,-490.28 767.66,-898.07 13.97,-627.74 -451.74,-1080.42 -1032.12,-900.19 -185.77,57.68 -279.11,141.67 -388.36,277.9 -103.91,129.59 -147.06,327.26 -101.58,526.41 38.62,169.07 138.33,290.42 289.47,378.47 359.4,209.35 779.49,-63.23 767.8,-426.15 -19.07,-591.48 -937.6,-513.37 -768.63,72.06zm325.68 -248.42c176.84,-63.25 263.29,203.2 93.33,266.9 -74.69,27.98 -160.07,-21.35 -181.45,-84.87 -30.59,-90.78 27.78,-160.45 88.12,-182.03zm-6441.74 -2838.46c-153.01,-156.58 -395.64,-31.35 -294.96,222.44l1461.29 1751.47c77.22,-72.34 159.97,-137.97 247.05,-193.55l-1413.37 -1780.36zm2000.62 1545.23l-1244.93 -1556.66c-97.69,-113.94 -275.77,-71.98 -318.08,62.77 -27.68,88.16 11.6,114.63 57.38,169.04 229.65,272.83 1070,1388.43 1155.52,1433.22 -0.5,-10.51 313.75,-111.91 350.11,-108.37zm212.71 -744.65c-230.52,-283.85 -541.73,-79.31 -273.26,244.04 128.81,156.81 257.64,313.6 386.46,470.4 182.56,1.14 354.84,22.59 529.45,87.64l-642.64 -802.08zm-1565.54 2538.86c-13.01,-230.22 2.83,-403.73 39.27,-536.69l-905.76 -1086.08c-160.33,-193.43 -536.82,-66.84 -286.05,235.08l1152.54 1387.69zm-1158.08 -2377.31l1294.11 1553.36c56.61,-134.7 126.25,-241.25 203.23,-342.71l-1276.68 -1529.13c-119.08,-153.47 -509.38,-19.45 -220.67,318.48zm1921.35 3643.19c-235.25,-139.99 -586.98,-607.36 -860.9,-951.22l-1358.11 -1704.98c-215.5,-266.55 -9.78,-632.56 271.11,-613.09l-298.61 -404.75c-233.68,-316.73 39.12,-578.25 285.13,-627.04 -245.74,-507.07 383.28,-915.76 777.74,-430.4 129.31,-254.58 467.95,-270.27 661.86,-104.62 111.71,95.43 461.69,564.62 581.92,714.93 54.04,60.24 109.1,151.08 157.95,155.34 79.56,-114.67 167.83,-205.52 329.35,-229.27 140.48,-20.64 317.29,48.54 391.41,157.7l1277.49 1602.1c81.08,101.69 136.55,170.05 196.03,287.85 709.3,1405.37 -860.98,3070.67 -2412.38,2147.44zm1253.9 -1518.44c115.43,-216.11 8.78,-534.99 -325.92,-600.85 -548.77,-107.99 -895.38,619.79 -448.48,1106.83 132.33,144.2 353.27,244.11 558.26,255.48 541.83,30.1 976.54,-476.38 1009.37,-992.79 13.52,-212.44 -70.37,-530.8 -179.73,-670.1 -129.76,-165.26 -266.93,-266.82 -470.53,-330.97 -462.58,-145.75 -966.25,-109.82 -1355.25,202.19 -627.7,503.5 -774.81,1387.52 -232.26,2043.46 973.85,1177.23 2836.94,135.13 2487.51,-1139.05 -165.32,789.27 -656.79,1253.14 -1508.72,1095.37 -386.36,-91.26 -766.04,-490.28 -767.66,-898.07 -13.97,-627.74 451.74,-1080.42 1032.12,-900.19 185.77,57.68 279.11,141.67 388.36,277.9 103.91,129.59 147.06,327.26 101.58,526.41 -38.62,169.07 -138.33,290.42 -289.47,378.47 -359.4,209.35 -779.49,-63.23 -767.8,-426.15 19.07,-591.48 937.6,-513.37 768.63,72.06zm-325.68 -248.42c-176.84,-63.25 -263.29,203.2 -93.33,266.9 74.69,27.98 160.07,-21.35 181.45,-84.87 30.59,-90.78 -27.78,-160.45 -88.12,-182.03zm2055.59 -3473.62c-351.81,-804.2 -1654.54,-645.25 -1820.5,183.93 -65.35,326.53 34.64,721.02 322.58,1074l1497.93 1836.42 1497.93 -1836.42c287.94,-352.99 387.93,-747.48 322.58,-1074 -165.97,-829.19 -1468.69,-988.13 -1820.5,-183.93z"/>
  <path class="fil1" d="M2637.97 7267.12l0 -1117.92c138.27,56.67 279.28,97.76 421,123.18l0 991.53c0,276.37 -77.68,489.01 -233,637.92 -155.32,148.89 -361.53,223.35 -618.63,223.35 -248.52,0 -455.27,-73.93 -620.25,-221.75 -164.96,-147.84 -247.45,-361 -247.45,-639.52l0 -2361.75 65.91 82.77 5.65 7.07 1.34 1.7 6.99 8.79 2.93 3.69 4.07 5.09 1.57 1.98 5.4 6.81 0.21 0.28 5.64 7.09 1.12 1.42 4.5 5.69 2.48 3.12 3.14 3.97 3.83 4.83 1.78 2.26 5.17 6.54 0.45 0.56 5.62 7.09 0.91 1.14 4.71 5.97 2.25 2.84 3.36 4.26 3.6 4.54 2.02 2.55 4.94 6.26 0.68 0.84 5.6 7.11 0.68 0.86 4.94 6.25 2.02 2.56 3.59 4.54 3.37 4.26 2.25 2.83 4.71 5.98 0.89 1.12 5.62 7.11 0.45 0.58 5.16 6.53 1.8 2.28 3.82 4.83 3.14 3.98 2.46 3.12 4.51 5.69 1.11 1.42 5.6 7.09 0.25 0.3 5.37 6.81 1.59 2 4.03 5.11 2.93 3.7 2.69 3.39 4.28 5.42 1.34 1.69 5.62 7.09 0.02 0.02 5.6 7.09 1.36 1.72 4.26 5.37 2.71 3.42 2.93 3.67 4.07 5.12 1.55 1.97 5.42 6.83 0.21 0.26 5.64 7.09 1.14 1.44 4.48 5.65 2.5 3.12 3.16 3.95 3.85 4.84 1.78 2.25 5.21 6.53 0.43 0.55 5.65 7.07 0.93 1.16 0.66 0.83 6.35 7.93 3.37 4.23 3.64 4.54 2.03 2.51 4.99 6.25 0.66 0.83 5.67 7.06 0.69 0.86 4.97 6.2 2.07 2.56 0.83 1.02 6.21 7.72 2.25 2.79 4.79 5.95 0.89 1.09 5.69 7.06 0.48 0.58 5.22 6.45 1.83 2.28 3.85 4.76 3.22 3.97 2.48 3.06 4.59 5.65 1.12 1.37 5.72 7.02 0.25 0.31 5.47 6.71 1.62 1.98 4.1 5.02 3.01 3.67 2.73 3.34 5.73 6.99 5.75 7.01 0.02 0.02 5.73 6.97 1.4 1.7 4.35 5.27 0 1829.46c0,154.25 41.78,269.96 125.34,347.09 83.56,77.12 188.54,115.69 314.94,115.69 130.68,0 235.13,-38.03 313.34,-114.09 78.19,-76.06 117.29,-192.29 117.29,-348.69zm1561.85 600.61c-117.84,0 -223.89,-22.49 -318.15,-67.48l0 996.59 -421 0 0 -2323.84 350.29 0 0 128.55c109.26,-104.98 252.8,-157.47 430.63,-157.47 186.39,0 351.9,65.88 496.51,197.63 144.61,131.77 216.92,306.91 216.92,525.45 0,203.53 -73.91,371.17 -221.75,502.94 -147.82,131.75 -325.65,197.63 -533.46,197.63zm-38.57 -1073.36c-124.25,0 -217.45,40.71 -279.57,122.12l0 533.46c79.26,47.14 170.31,70.7 273.16,70.7 102.83,0 190.15,-32.13 261.91,-96.4 71.78,-64.27 107.66,-149.98 107.66,-257.1 0,-117.84 -35.35,-209.43 -106.06,-274.78 -70.69,-65.33 -156.4,-98.01 -257.1,-98.01zm2965.49 1281.07l-454.75 7.95 -971.39 -1620.43 0 1620.43 -420.98 0 0 -2471.92 398.49 0 1047.68 1787.42 0 -1270.63c129.67,60.7 263.96,105.46 400.95,134.5l0 1812.69zm823.45 7.95l-424.2 0 0 -1610.39 376.01 0 0 192.82c40.71,-66.42 98.01,-119.99 171.93,-160.69 73.91,-40.71 150.5,-61.05 229.78,-61.05 68.55,0 131.75,10.71 189.6,32.13l0 382.44c-51.42,-19.29 -113.54,-28.92 -186.39,-28.92 -324.08,0 -356.41,117.97 -356.72,498.46l0 755.21zm1301.55 -1610.39l0 1693.96c0,175.67 -53.02,316.55 -159.07,422.6 -106.06,106.04 -243.71,159.07 -412.97,159.07 -154.25,0 -293.51,-35.35 -417.77,-106.06l122.12 -331.01c70.7,42.86 142.46,64.27 215.32,64.27 152.12,0 228.17,-80.34 228.17,-241.03l0 -1661.81 424.2 0zm38.56 -549.61c0,74.98 -23.57,135.51 -70.7,181.57 -47.12,46.06 -104.96,69.1 -173.54,69.1 -72.84,0 -132.83,-23.04 -179.96,-69.1 -47.14,-46.06 -70.7,-106.58 -70.7,-181.57 0,-66.42 24.11,-122.12 72.31,-167.12 48.21,-44.99 107.66,-67.48 178.36,-67.48 68.57,0 126.42,22.49 173.54,67.48 47.14,45 70.7,100.7 70.7,167.12z"/>
 </g>
</svg>
