<svg fill="none" height="300" viewBox="0 0 214 300" width="214" xmlns="http://www.w3.org/2000/svg"><path d="m72.8678 117.445c-2.5-4.4-5-8.7-7.4-13.2-3.7-7.0005-7.3-14.0005-8.9-21.9005-1.3-6.7-1.5-13.6.4-20.2 1.2-4 4.7-5.2 8.3-3.4 1.5.7 2.3 2 2.7 3.4.7 2.3 1.4 4.6 1.9 6.9 1.5 6.3 4.8 11.4 9.2 16 7.7 8.1 14.9 16.6005 20.4 26.3005 2.4002 4.4 4.5002 8.9 6.2002 13.6.2.6.2 1.5 1 1.6s.9-.8 1.1-1.4c4.4-12.9 12-23.8 20.9-33.9005 3.1-3.5 6.4-7 9.4-10.6 3.9-4.8 5.4-10.6 6.7-16.5.4-1.8 1-3.6 2.5-4.8 3.3-2.9 8-1.5 9.3 2.8 1.3 4.2 1.4 8.5 1.3 12.8-.4 11.8-5.9 21.8-11.3 31.9005-1.9 3.5-4 7-6.3 11 2.7-1.1 4.3-2.7 5.9-4.2 12.1-11.2 20.7-24.6005 26.6-39.9005 5-13 3.3-25.2-3.5-37-3.8-6.6-7.9-13.1-10.8-20.2-1.3-3.1-1.5-6.3-1.1-9.59997.4-3.6 4.1-7.399998 7.8-6.8999979 2.4.2999999 3.7 1.8999979 4.8 3.5999979 3.8 5.8 7.3 11.79997 11.2 17.59997 3.9 5.9 7.8 11.7 12.4 17.1 3.3 4 4.2 8.7 4.3 13.5.2 9-1 17.8-2.6 26.7-1.3 7.2-3.1 14.2-5.2 21.2-3.7 12.2005-10.8 22.0005-20.3 30.4005-13.1 11.6-27.7 21.1-42.7 30-6.2 3.7-12.6 7-18.9 10.5-.9.5-1.6.5-2.6 0-15.0002-8.5-30.2002-16.7-44.2002-26.8-10.9-7.9-21.5-16.2-29.5-27.2-4-5.5-6.2-11.9-8.4-18.2005-2.8-8.1-4.4-16.5-5.8-24.8-1.5-8.9-1.6-17.9-1.1-26.8.2-4.2 3.2-7.2 5.5-10.4 7.2-9.6 13.8-19.5 19.9-29.79997.7-1.2 1.4-2.5 2.3-3.5 3.9-4.6 9.5-3.600002 11.6 2.2 1.2 3.4.9 6.89997-.3 10.29997-2.1 6.1-5.5 11.5-8.7 17.1-4.1 6.9-7.6 14-8.6 22.1-.8 6.4.4 12.4 2.5 18.3 5.6 15.5 14.3 29.0005 26.3 40.3005 1.6 1.5 3.4 3.2 5.8 4z" fill="#ed8378"/><path d="m128.268 244.845c1-1.4 1.3-2.901 1.9-4.301 4-10.2 7.7-20.499 13-30.099 1.7-3.1 2.3-3.2 5.5-1.6 1.9 1 3.7 2.199 5.3 3.699.8.7 1.1 1.401.4 2.401-4.9 5.8-7.5 12.899-10.3 19.699-5.3 12.5-10 25.3-13.8 38.4-.5 1.6-.7 3.201-1 4.901-.2 1.7-1.2 2.099-2.6 1.599-1.7-.6-3.5-1.2-5.1-2-1.5-.8-2.4-2-2.4-4 0-13.3 1-26.599 1.8-39.799.3-4.5 0-9.001-.5-13.701-1.5 3.2-3 6.3-4.4 9.5-5.5 13-10.6 26.1-14.8 39.6-1.1 3.5-2.4001 7.1-2.5001 10.9 0 1.8-.9 2.001-2.2.901-.1-.1-.1-.101-.2-.201-7.4-5.8-7.8-6.7-4.6-15.7 6.2-17.4 13.1001-34.399 22.0001-50.699 1-1.8 2-3.601 3.4-5.201 1.2-1.2 2.3-1.4 3.8-.6 3.8 2.1 6.8 5.2 8.7 9 1.4 2.8.1 6-.2 9.1-.5 5.4-1.1 10.701-1.6 16.101 0 .6-.2 1.3.4 2.1z" fill="#74a385"/><path d="m30.6678 254.445c-2.9 6.7-5.4 13.1-9.4 18.8-.1.1-.2.3-.3.4-5.2 7.2-9.7 7.6-16.30003.4-4.5999952-5-5.499995-11-3.999995-17.5 2.799995-12.5 7.099995-24.6 12.100025-36.4 1.5-3.6 3.4-7 5-10.6 1-2.1 2.5-2.5 4.4-1.3.4.3.9.5 1.3.7 5.3 3.3 5.2 3.2 2 8.3-4.4 6.8-7.2 14.4-10 21.9-2.8 7.6-5.4 15.2-6.70003 23.2-.4 2.1-.5 4.1-.4 6.2 0 1.5.2 3 1.90003 3.4 1.4.4 2.5-.6 3.4-1.6 3-3.4 5.3-7.2 7.5-11.1 8.2-14.5 14.9-29.7 22.5-44.5 1-1.8 2-3.7 3-5.4s2.2-2.3 4.1-1.2c2.1 1.2 4.1 2.5 5.8 4.3.7.7.8 1.3.1 2.2-5.7 6.9-8.4 15.2-11.3 23.4-3.5 10-6.2 20.3-7.8 30.8-.4 2.6-.4 5.1-.2 7.7.1 1.5-.4 1.9-1.9 1.4-5.5-2-7-4.2-6.6-10.1.2-3.5 1-6.9 1.8-10.3.2-.8.5-1.7 0-3.1z" fill="#74a385"/><path d="m131.968 59.1445c-.2 4.1-1.8 7.9-5.2 10.6-6.1 4.9-12.5 9.6-18.7 14.5-.9.7-1.6.8-2.6 0-6.3001-4.9-12.7001-9.6-18.9001-14.6-4.6-3.8-5.9-9-4.4-14.6 1.3-5 4.7-8.1 9.6-9.9 4.9-1.7 9.1001-.4 12.9001 2.6 1.4 1.1 2.4 1.1 3.8-.1 9.3-7.2 20.8-1.5 23.1 8.5.4.8.3 1.8.4 3z" fill="#ed8378"/><path d="m64.5678 227.645c2.4.4 5.2-.3 6.7 2.6.4.8 1.2-.1 1.6-.5 1.9-2.4 3.7-1.9 5.9-.3 5.2 3.8 6.3 7.1 4.8 13.3-.7 3-1.2 6.1-2.3 9.1-.2.5-.2 1.2.4 1.6.5.3.9-.1 1.3-.4 2.4-1.7 4.3-3.9 6.4-5.9.4-.4.7-1.1 1.4-.7.5.3.4.9.4 1.4 0 2.5-1.4 4.4-2.7 6.3-2.4 3.5-5.5 6.2-8.9 8.7-3 2.2-5.2 4.9-7.2 7.8-1.1 1.6-2.5 3.1-3.9 4.5-3.3 3.4-8 2.7-10.9 0-1.2-1.1-1.9-1.4-2.4.7-1.1 5.1-2.5 10.1-3.7 15.2-.5 2.2-.7 4.6-1.1 6.9-.3 2-1 2-2.6 1.4-5-1.8-6-3.9-5-9.2 1.2-6.5 2.8-12.9 4.4-19.3 1.8-7.1 4-14.1 6.2-21.1 2-6.5 4.2-12.8 6.4-19.2 1-2.9 2.5-3 4.8-2.9zm10.5 8.2c-1.6.7-2.1 1.6-2.8 2.4-2.2 2.8-3.9 6-5.7 9.1-3.1 5.5-5.7 11.3-8.1 17.1-.6 1.4-.2 3.3 1.3 2.9 2.4-.5 4.9-1.3 6.3-4 3-5.9 5.3-12 7.1-18.3.8-2.9 1.8-5.8 1.9-9.2z" fill="#74a385"/><path d="m169.368 266.944c.9-.2 1.3-.9 1.8-1.6 3.8-5.2 7.3-10.5 10.4-16.1.4-.7.5-2.2 1.6-1.7 1 .4.5 1.8.2 2.7-1.8 6.2-4.5 12.1-7.7 17.8-1.7 3-3.5 6-5.9 8.6-1.4 1.5-2.8 1.7-4.4.6-2.4-1.6-4.5-3.7-5.9-6.3-1.1-2-.4-3.9.1-5.8 1.8-7.7 4.8-15 7.5-22.4.9-2.5.1-5.3-2.1-6.7-1.3-.8-1.8 0-2.2 1-4.5 9.8-8.4 19.9-11.5 30.2-.9 2.9-1.6 5.8-1.9 8.7-.2 1.9-1.1 1.7-2.3 1-3.8-2.1-4.9-5.2-3.5-9.5 3.9-11.4 8.7-22.5 13.9-33.3.7-1.4.9-2.7.3-4.2-1.2-3.1 1.7-9.7 4.6-11.4.7-.4 1.4-.4 2.1-.1 1 .5 2.1 1 3.1 1.6 3.3 2.2 3.3 2.3 1.1 5.5-1.8 2.7-1.6 4.5.7 6.8 1.9 1.9 3.9 3.6 5.4 5.8 1.8 2.4 2 4.9.8 7.7-2.7 6.5-4.8 13.1-6.4 19.9-.1.4-.2.8.2 1.2z" fill="#74a385"/><path d="m44.1678 58.5445c.3-9.6 3.2-18 9.7-25.4 6.9-7.8 9.6-17.1 7.4-27.49999-.5-2.2.3-3.50001 2.3-4.20001 5.2-1.799999 9.9 1.4 10.3 6.8.4 4.7-.5 9.2-1.5 13.8-.2 1.1-.4 1.9.5 2.9 3.4 3.3 3.5 7 0 10.2-2.9 2.7-6 5.2-9.2 7.6-7.4 5.6-11.8 13.1-14.9 21.6-.4 1.2-.9 2.3-1.1 3.5-.1.7-.3 1.7-1.2 1.7-.7 0-.9-.9-1.1-1.5-.7-3.1-1.3-6.2-1.2-9.5z" fill="#ed8378"/><path d="m147.168 1.24451c1.3 0 2.6 0 3.8.8 1 .6 1.4 1.29999 1.2 2.39999-2.1 11.9 1.1 22.1 9.2 31.2 6.5 7.3 8.3 16.4 7.6 26-.2 2.2 0 4.5-1.1 6.6-.3.6-.2 1.5-1.1 1.4-.7 0-.8-.8-.9-1.3-1.1-3.7-2.7-7.3-4.3-10.9-3.6-7.9-9.9-13.4-16.6-18.5-1.9-1.4-3.7-2.8-5.2-4.6-2.3-2.6-2.6-5.8-.2-8.3 1.9-2 1.5-3.9 1.1-6.2-.8-4.1-1.4-8.3-.7-12.59999.7-4.4 2.6-6 7.2-6z" fill="#ed8378"/><g fill="#74a385"><path d="m189.968 264.144c2-1.3 2.6-3.1 3.8-4.5 3.8-4 8-7.7 10.2-13 .2-.5.6-1.1 1.3-.9s.7.9.6 1.4c-.4 3.6-2.1 6.6-3.8 9.6-3.5 6.2-7.7 11.8-12.6 16.9-3 3.1-4.1 6.901-5.4 10.701-1.5 4.3-3.4 8.4-5.4 12.5-1.6 3.2-2.8 3.299-5.3.799-.7-.6-1.3-1.3-1.9-2-2.3-2.5-2.5-3.9-.7-6.6 5.3-7.7 8.5-16.099 10.5-25.199 2.2-10.4 5.5-20.701 9.5-30.601.4-.9.8-1.8 1.3-2.7 1.4-2.6 2.5-3.099 5.2-2.199 4.8 1.6 5.2 2.5 3.1 7-4.1 8.7-7.2 17.9-10.2 27-.1.5-.1.899-.2 1.799z"/><path d="m200.068 210.945c.8-3.6 1.4-7.8 4.4-11.1 1.4-1.6 2.9-2.1 4.8-1 .6.4 1.2.6 1.8.9 3.2 2.1 3.2 2.1 1.1 5.2-2.3 3.3-4.1 6.8-5.3 10.7-.8 2.6-1.7 2.9-3.6 1-1.6-1.4-3.4-2.8-3.2-5.7z"/></g></svg>