<svg width="207" height="300" viewBox="0 0 207 300" fill="none" xmlns="http://www.w3.org/2000/svg">
<path d="M73.6 117.7C71.1 113.3 68.6 109 66.2 104.5C62.5 97.5 58.9 90.5 57.3 82.6C56 75.9 55.8 69 57.7 62.4C58.9 58.4 62.4 57.2 66 59C67.5 59.7 68.3 61 68.7 62.4C69.4 64.7 70.1 67 70.6 69.3C72.1 75.6 75.4 80.7 79.8 85.3C87.5 93.4 94.7 101.9 100.2 111.6C102.6 116 104.7 120.5 106.4 125.2C106.6 125.8 106.6 126.7 107.4 126.8C108.2 126.9 108.3 126 108.5 125.4C112.9 112.5 120.5 101.6 129.4 91.5C132.5 88 135.8 84.5 138.8 80.9C142.7 76.1 144.2 70.3 145.5 64.4C145.9 62.6 146.5 60.8 148 59.6C151.3 56.7 156 58.1 157.3 62.4C158.6 66.6 158.7 70.9 158.6 75.2C158.2 87 152.7 97 147.3 107.1C145.4 110.6 143.3 114.1 141 118.1C143.7 117 145.3 115.4 146.9 113.9C159 102.7 167.6 89.3 173.5 74C178.5 61 176.8 48.8 170 37C166.2 30.4 162.1 23.9 159.2 16.8C157.9 13.7 157.7 10.5 158.1 7.20002C158.5 3.60002 162.2 -0.199975 165.9 0.300025C168.3 0.600025 169.6 2.20002 170.7 3.90002C174.5 9.70002 178 15.7 181.9 21.5C185.8 27.4 189.7 33.2 194.3 38.6C197.6 42.6 198.5 47.3 198.6 52.1C198.8 61.1 197.6 69.9 196 78.8C194.7 86 192.9 93 190.8 100C187.1 112.2 180 122 170.5 130.4C157.4 142 142.8 151.5 127.8 160.4C121.6 164.1 115.2 167.4 108.9 170.9C108 171.4 107.3 171.4 106.3 170.9C91.3 162.4 76.1 154.2 62.1 144.1C51.2 136.2 40.6 127.9 32.6 116.9C28.6 111.4 26.4 105 24.2 98.7C21.4 90.6 19.8 82.2 18.4 73.9C16.9 65 16.8 56 17.3 47.1C17.5 42.9 20.5 39.9 22.8 36.7C30 27.1 36.6 17.2 42.7 6.90002C43.4 5.70002 44.1 4.40002 45 3.40002C48.9 -1.19998 54.5 -0.199979 56.6 5.60002C57.8 9.00002 57.5 12.5 56.3 15.9C54.2 22 50.8 27.4 47.6 33C43.5 39.9 40 47 39 55.1C38.2 61.5 39.4 67.5 41.5 73.4C47.1 88.9 55.8 102.4 67.8 113.7C69.4 115.2 71.2 116.9 73.6 117.7Z" fill="white"/>
<path d="M129 245.1C130 243.7 130.3 242.2 130.9 240.8C134.9 230.6 138.6 220.3 143.9 210.7C145.6 207.6 146.2 207.5 149.4 209.1C151.3 210.1 153.1 211.3 154.7 212.8C155.5 213.5 155.8 214.2 155.1 215.2C150.2 221 147.6 228.1 144.8 234.9C139.5 247.4 134.8 260.2 131 273.3C130.5 274.9 130.3 276.5 130 278.2C129.8 279.9 128.8 280.3 127.4 279.8C125.7 279.2 123.9 278.6 122.3 277.8C120.8 277 119.9 275.8 119.9 273.8C119.9 260.5 120.9 247.2 121.7 234C122 229.5 121.7 225 121.2 220.3C119.7 223.5 118.2 226.6 116.8 229.8C111.3 242.8 106.2 255.9 102 269.4C100.9 272.9 99.5999 276.5 99.4999 280.3C99.4999 282.1 98.5999 282.3 97.2999 281.2C97.1999 281.1 97.1999 281.1 97.0999 281C89.6999 275.2 89.2999 274.3 92.4999 265.3C98.6999 247.9 105.6 230.9 114.5 214.6C115.5 212.8 116.5 211 117.9 209.4C119.1 208.2 120.2 208 121.7 208.8C125.5 210.9 128.5 214 130.4 217.8C131.8 220.6 130.5 223.8 130.2 226.9C129.7 232.3 129.1 237.6 128.6 243C128.6 243.6 128.4 244.3 129 245.1Z" fill="white"/>
<path d="M31.4 254.7C28.5 261.4 26 267.8 22 273.5C21.9 273.6 21.7999 273.8 21.6999 273.9C16.4999 281.1 12 281.5 5.39995 274.3C0.799953 269.3 -0.100048 263.3 1.39995 256.8C4.19995 244.3 8.49995 232.2 13.5 220.4C15 216.8 16.9 213.4 18.5 209.8C19.5 207.7 21 207.3 22.9 208.5C23.3 208.8 23.7999 209 24.1999 209.2C29.4999 212.5 29.3999 212.4 26.1999 217.5C21.7999 224.3 18.9999 231.9 16.1999 239.4C13.3999 247 10.8 254.6 9.49995 262.6C9.09995 264.7 8.99995 266.7 9.09995 268.8C9.09995 270.3 9.29995 271.8 11 272.2C12.4 272.6 13.5 271.6 14.4 270.6C17.4 267.2 19.7 263.4 21.9 259.5C30.1 245 36.8 229.8 44.4 215C45.4 213.2 46.4 211.3 47.4 209.6C48.4 207.9 49.5999 207.3 51.5 208.4C53.5999 209.6 55.6 210.9 57.3 212.7C58 213.4 58.1 214 57.4 214.9C51.7 221.8 49 230.1 46.0999 238.3C42.5999 248.3 39.9 258.6 38.3 269.1C37.9 271.7 37.8999 274.2 38.0999 276.8C38.1999 278.3 37.6999 278.7 36.1999 278.2C30.6999 276.2 29.1999 274 29.5999 268.1C29.7999 264.6 30.6 261.2 31.4 257.8C31.6 257 31.9 256.1 31.4 254.7Z" fill="white"/>
<path d="M132.7 59.4C132.5 63.5 130.9 67.3 127.5 70C121.4 74.9 115 79.6 108.8 84.5C107.9 85.2 107.2 85.3 106.2 84.5C99.9 79.6 93.5 74.9 87.3 69.9C82.7 66.1 81.4 60.9 82.9 55.3C84.2 50.3 87.6 47.2 92.5 45.4C97.4 43.7 101.6 45 105.4 48C106.8 49.1 107.8 49.1 109.2 47.9C118.5 40.7 130 46.4 132.3 56.4C132.7 57.2 132.6 58.2 132.7 59.4Z" fill="white"/>
<path d="M65.2998 227.9C67.6998 228.3 70.4998 227.6 71.9998 230.5C72.3998 231.3 73.1998 230.4 73.5998 230C75.4998 227.6 77.2998 228.1 79.4998 229.7C84.6998 233.5 85.7998 236.8 84.2998 243C83.5998 246 83.0998 249.1 81.9998 252.1C81.7998 252.6 81.7998 253.3 82.3998 253.7C82.8998 254 83.2998 253.6 83.6998 253.3C86.0998 251.6 87.9998 249.4 90.0998 247.4C90.4998 247 90.7998 246.3 91.4998 246.7C91.9998 247 91.8998 247.6 91.8998 248.1C91.8998 250.6 90.4998 252.5 89.1998 254.4C86.7998 257.9 83.6998 260.6 80.2998 263.1C77.2998 265.3 75.0998 268 73.0998 270.9C71.9998 272.5 70.5998 274 69.1998 275.4C65.8998 278.8 61.1998 278.1 58.2998 275.4C57.0998 274.3 56.3998 274 55.8998 276.1C54.7998 281.2 53.3998 286.2 52.1998 291.3C51.6998 293.5 51.4998 295.9 51.0998 298.2C50.7998 300.2 50.0998 300.2 48.4998 299.6C43.4998 297.8 42.4998 295.7 43.4998 290.4C44.6998 283.9 46.2998 277.5 47.8998 271.1C49.6998 264 51.8998 257 54.0998 250C56.0998 243.5 58.2998 237.2 60.4998 230.8C61.4998 227.9 62.9998 227.8 65.2998 227.9ZM75.7998 236.1C74.1998 236.8 73.6998 237.7 72.9998 238.5C70.7998 241.3 69.0998 244.5 67.2998 247.6C64.1998 253.1 61.5998 258.9 59.1998 264.7C58.5998 266.1 58.9998 268 60.4998 267.6C62.8998 267.1 65.3998 266.3 66.7998 263.6C69.7998 257.7 72.0998 251.6 73.8998 245.3C74.6998 242.4 75.6998 239.5 75.7998 236.1Z" fill="white"/>
<path d="M170.1 267.2C171 267 171.4 266.3 171.9 265.6C175.7 260.4 179.2 255.1 182.3 249.5C182.7 248.8 182.8 247.3 183.9 247.8C184.9 248.2 184.4 249.6 184.1 250.5C182.3 256.7 179.6 262.6 176.4 268.3C174.7 271.3 172.9 274.3 170.5 276.9C169.1 278.4 167.7 278.6 166.1 277.5C163.7 275.9 161.6 273.8 160.2 271.2C159.1 269.2 159.8 267.3 160.3 265.4C162.1 257.7 165.1 250.4 167.8 243C168.7 240.5 167.9 237.7 165.7 236.3C164.4 235.5 163.9 236.3 163.5 237.3C159 247.1 155.1 257.2 152 267.5C151.1 270.4 150.4 273.3 150.1 276.2C149.9 278.1 149 277.9 147.8 277.2C144 275.1 142.9 272 144.3 267.7C148.2 256.3 153 245.2 158.2 234.4C158.9 233 159.1 231.7 158.5 230.2C157.3 227.1 160.2 220.5 163.1 218.8C163.8 218.4 164.5 218.4 165.2 218.7C166.2 219.2 167.3 219.7 168.3 220.3C171.6 222.5 171.6 222.6 169.4 225.8C167.6 228.5 167.8 230.3 170.1 232.6C172 234.5 174 236.2 175.5 238.4C177.3 240.8 177.5 243.3 176.3 246.1C173.6 252.6 171.5 259.2 169.9 266C169.8 266.4 169.7 266.8 170.1 267.2Z" fill="white"/>
<path d="M44.8999 58.8C45.1999 49.2 48.0999 40.8 54.5999 33.4C61.4999 25.6 64.1999 16.3 61.9999 5.9C61.4999 3.7 62.2999 2.39999 64.2999 1.69999C69.4999 -0.100006 74.1999 3.1 74.5999 8.5C74.9999 13.2 74.0999 17.7 73.0999 22.3C72.8999 23.4 72.6999 24.2 73.5999 25.2C76.9999 28.5 77.0999 32.2 73.5999 35.4C70.6999 38.1 67.5999 40.6 64.3999 43C56.9999 48.6 52.5999 56.1 49.4999 64.6C49.0999 65.8 48.5999 66.9 48.3999 68.1C48.2999 68.8 48.0999 69.8 47.1999 69.8C46.4999 69.8 46.2999 68.9 46.0999 68.3C45.3999 65.2 44.7999 62.1 44.8999 58.8Z" fill="white"/>
<path d="M147.9 1.5C149.2 1.5 150.5 1.5 151.7 2.3C152.7 2.9 153.1 3.6 152.9 4.7C150.8 16.6 154 26.8 162.1 35.9C168.6 43.2 170.4 52.3 169.7 61.9C169.5 64.1 169.7 66.4 168.6 68.5C168.3 69.1 168.4 70 167.5 69.9C166.8 69.9 166.7 69.1 166.6 68.6C165.5 64.9 163.9 61.3 162.3 57.7C158.7 49.8 152.4 44.3 145.7 39.2C143.8 37.8 142 36.4 140.5 34.6C138.2 32 137.9 28.8 140.3 26.3C142.2 24.3 141.8 22.4 141.4 20.1C140.6 16 140 11.8 140.7 7.5C141.4 3.1 143.3 1.5 147.9 1.5Z" fill="white"/>
<path d="M190.7 264.4C192.7 263.1 193.3 261.3 194.5 259.9C198.3 255.9 202.5 252.2 204.7 246.9C204.9 246.4 205.3 245.8 206 246C206.7 246.2 206.7 246.9 206.6 247.4C206.2 251 204.5 254 202.8 257C199.3 263.2 195.1 268.8 190.2 273.9C187.2 277 186.1 280.8 184.8 284.6C183.3 288.9 181.4 293 179.4 297.1C177.8 300.3 176.6 300.4 174.1 297.9C173.4 297.3 172.8 296.6 172.2 295.9C169.9 293.4 169.7 292 171.5 289.3C176.8 281.6 180 273.2 182 264.1C184.2 253.7 187.5 243.4 191.5 233.5C191.9 232.6 192.3 231.7 192.8 230.8C194.2 228.2 195.3 227.7 198 228.6C202.8 230.2 203.2 231.1 201.1 235.6C197 244.3 193.9 253.5 190.9 262.6C190.8 263.1 190.8 263.5 190.7 264.4Z" fill="white"/>
</svg>
